<?xml version="1.0" encoding="UTF-8" standalone="no"?>
<!-- Created with Inkscape (http://www.inkscape.org/) -->
<svg id="svg4257" xmlns:rdf="http://www.w3.org/1999/02/22-rdf-syntax-ns#" xmlns="http://www.w3.org/2000/svg" height="1" width="3" version="1.1" xmlns:cc="http://creativecommons.org/ns#" xmlns:dc="http://purl.org/dc/elements/1.1/">
 <g id="g4259" transform="matrix(0.02887277,0,0,0.02887277,19.301186,-36.326002)">
  <g id="g4287" transform="matrix(1.5299059,0,0,1.5662858,348.96439,-730.55369)">
   <path id="path4261" d="m-653.94,1271.9c-4.8848,0-8.8448,3.96-8.8448,8.8448s3.96,8.8448,8.8448,8.8448c1.6115,0,3.1212-0.4346,4.4224-1.1875v-15.319c-1.3012-0.7529-2.8109-1.1834-4.4224-1.1834z" fill="#2e3436"/>
   <rect id="rect4263" height="0.74613" width="50.12" y="1273.4" x="-649.51" fill="#2e3436"/>
   <path id="path4265" d="m-646.63,1273.8,2.9483,0.7862,0,1.4741-2.9483-1.3103z" fill="#2e3436"/>
   <path id="path4267" d="m-649.51,1280.7a5.1595,5.1595,0,0,1,-10.319,0,5.1595,5.1595,0,1,1,10.319,0z" fill="#d3d7cf"/>
   <path id="path4269" d="m-653.94,1278.5a0.73707,0.73707,0,0,1,-1.4741,0,0.73707,0.73707,0,1,1,1.4741,0z" fill="#2e3436"/>
   <path id="path4271" d="m-653.94,1283a0.73707,0.73707,0,0,1,-1.4741,0,0.73707,0.73707,0,1,1,1.4741,0z" fill="#2e3436"/>
   <path id="path4273" stroke-linejoin="miter" d="m-652.53,1282.2s1.48,0.1129,1.4741-1.4741c-0.006-1.5326-1.4741-1.4742-1.4741-1.4742" stroke="#000" stroke-linecap="butt" stroke-width="0.13103396px" fill="none"/>
   <rect id="rect4275" rx="1.4741" ry="1.4741" height="2.9483" width="4.4224" y="1285.2" x="-650.99" fill="#d3d7cf"/>
   <rect id="rect4277" rx="1.4741" ry="1.4741" height="2.9483" width="4.4224" y="1273.4" x="-650.99" fill="#d3d7cf"/>
  </g>
 </g>
 <metadata id="metadata4279">
  <rdf:RDF>
   <cc:Work rdf:about="">
    <dc:title/>
    <dc:format>image/svg+xml</dc:format>
    <dc:type rdf:resource="http://purl.org/dc/dcmitype/StillImage"/>
   </cc:Work>
  </rdf:RDF>
 </metadata>
</svg>
